<svg width="1600" height="900" viewBox="0 0 1600 900" fill="none" xmlns="http://www.w3.org/2000/svg">
  <defs>
    <linearGradient id="sky" x1="302" y1="46" x2="1314" y2="798" gradientUnits="userSpaceOnUse">
      <stop stop-color="#355082"/>
      <stop offset="0.33" stop-color="#59689A"/>
      <stop offset="0.65" stop-color="#8C7FA5"/>
      <stop offset="1" stop-color="#151925"/>
    </linearGradient>
    <radialGradient id="sunset" cx="0" cy="0" r="1" gradientUnits="userSpaceOnUse" gradientTransform="translate(1314 358) rotate(145.221) scale(530.616 406.683)">
      <stop stop-color="#FFD9BF" stop-opacity="0.72"/>
      <stop offset="0.34" stop-color="#D8A7BC" stop-opacity="0.34"/>
      <stop offset="0.76" stop-color="#6C688E" stop-opacity="0.08"/>
      <stop offset="1" stop-color="#111621" stop-opacity="0"/>
    </radialGradient>
    <radialGradient id="leftGlow" cx="0" cy="0" r="1" gradientUnits="userSpaceOnUse" gradientTransform="translate(262 270) rotate(91.018) scale(316.137 256.657)">
      <stop stop-color="#46CCFF" stop-opacity="0.3"/>
      <stop offset="1" stop-color="#46CCFF" stop-opacity="0"/>
    </radialGradient>
    <linearGradient id="hillFar" x1="1016" y1="372" x2="1026" y2="617" gradientUnits="userSpaceOnUse">
      <stop stop-color="#2B3042" stop-opacity="0.28"/>
      <stop offset="1" stop-color="#171A25" stop-opacity="0.9"/>
    </linearGradient>
    <linearGradient id="hillNear" x1="1026" y1="433" x2="1026" y2="842" gradientUnits="userSpaceOnUse">
      <stop stop-color="#2E3140"/>
      <stop offset="1" stop-color="#0D1017"/>
    </linearGradient>
    <linearGradient id="castleWall" x1="930" y1="312" x2="1289" y2="566" gradientUnits="userSpaceOnUse">
      <stop stop-color="#956C67"/>
      <stop offset="0.42" stop-color="#7A5B58"/>
      <stop offset="1" stop-color="#4A3A3D"/>
    </linearGradient>
    <linearGradient id="castleShadow" x1="958" y1="337" x2="1256" y2="560" gradientUnits="userSpaceOnUse">
      <stop stop-color="#5B454B" stop-opacity="0"/>
      <stop offset="1" stop-color="#2A2127" stop-opacity="0.72"/>
    </linearGradient>
    <linearGradient id="bodyShell" x1="16" y1="497" x2="491" y2="899" gradientUnits="userSpaceOnUse">
      <stop stop-color="#43516B"/>
      <stop offset="0.36" stop-color="#283146"/>
      <stop offset="0.74" stop-color="#121824"/>
      <stop offset="1" stop-color="#070A10"/>
    </linearGradient>
    <linearGradient id="bodyRim" x1="130" y1="588" x2="475" y2="838" gradientUnits="userSpaceOnUse">
      <stop stop-color="#99B5DF"/>
      <stop offset="0.24" stop-color="#5D6C89"/>
      <stop offset="0.66" stop-color="#222A3A"/>
      <stop offset="1" stop-color="#0A0D13"/>
    </linearGradient>
    <linearGradient id="glass" x1="126" y1="118" x2="542" y2="566" gradientUnits="userSpaceOnUse">
      <stop stop-color="#D3F2FF" stop-opacity="0.56"/>
      <stop offset="0.22" stop-color="#A5D1F4" stop-opacity="0.28"/>
      <stop offset="0.66" stop-color="#81AED6" stop-opacity="0.14"/>
      <stop offset="1" stop-color="#5B86B4" stop-opacity="0.06"/>
    </linearGradient>
    <linearGradient id="glassEdge" x1="145" y1="118" x2="506" y2="489" gradientUnits="userSpaceOnUse">
      <stop stop-color="#DFF5FF" stop-opacity="0.88"/>
      <stop offset="0.34" stop-color="#8CCFFC" stop-opacity="0.36"/>
      <stop offset="0.78" stop-color="#5F91C0" stop-opacity="0.18"/>
      <stop offset="1" stop-color="#486C94" stop-opacity="0.1"/>
    </linearGradient>
    <radialGradient id="brainGlow" cx="0" cy="0" r="1" gradientUnits="userSpaceOnUse" gradientTransform="translate(254 267) rotate(18.164) scale(188.126 160.648)">
      <stop stop-color="#D2FCFF" stop-opacity="0.88"/>
      <stop offset="0.28" stop-color="#93F2FF" stop-opacity="0.92"/>
      <stop offset="0.58" stop-color="#36CCFF" stop-opacity="0.58"/>
      <stop offset="1" stop-color="#36CCFF" stop-opacity="0"/>
    </radialGradient>
    <linearGradient id="brainStroke" x1="115" y1="135" x2="366" y2="364" gradientUnits="userSpaceOnUse">
      <stop stop-color="#C9FBFF"/>
      <stop offset="0.52" stop-color="#70ECFF"/>
      <stop offset="1" stop-color="#17B8F5"/>
    </linearGradient>
    <radialGradient id="neckGlow" cx="0" cy="0" r="1" gradientUnits="userSpaceOnUse" gradientTransform="translate(181 674) rotate(47.201) scale(176.552 89.1451)">
      <stop stop-color="#66E2FF" stop-opacity="0.72"/>
      <stop offset="1" stop-color="#66E2FF" stop-opacity="0"/>
    </radialGradient>
    <filter id="soft" x="-120" y="-120" width="1840" height="1140" filterUnits="userSpaceOnUse" color-interpolation-filters="sRGB">
      <feGaussianBlur stdDeviation="30"/>
    </filter>
    <filter id="glow" x="40" y="72" width="480" height="390" filterUnits="userSpaceOnUse" color-interpolation-filters="sRGB">
      <feGaussianBlur stdDeviation="14"/>
    </filter>
    <clipPath id="brainClip">
      <path d="M125 185C153 132 214 109 281 114C336 118 393 148 417 194C443 243 432 309 394 346C356 381 300 399 247 394C199 389 148 364 121 322C97 285 101 229 125 185Z"/>
    </clipPath>
  </defs>

  <rect width="1600" height="900" fill="url(#sky)"/>
  <rect width="1600" height="900" fill="url(#sunset)"/>
  <rect width="1600" height="900" fill="url(#leftGlow)"/>

  <g filter="url(#soft)" opacity="0.24">
    <ellipse cx="1270" cy="325" rx="285" ry="150" fill="#FFD3C8"/>
    <ellipse cx="280" cy="252" rx="190" ry="134" fill="#48C9FF"/>
  </g>

  <path d="M0 480C166 430 300 417 459 449C608 478 732 539 873 530C1008 521 1126 432 1287 418C1415 408 1512 438 1600 502V0H0V480Z" fill="#1A1F2E" fill-opacity="0.18"/>

  <path d="M642 573C770 504 865 475 971 480C1087 485 1178 566 1298 565C1416 564 1503 509 1600 486V900H642V573Z" fill="url(#hillFar)"/>
  <path d="M692 631C799 536 875 490 960 489C1063 487 1141 565 1241 589C1375 621 1494 581 1600 534V900H692V631Z" fill="url(#hillNear)"/>
  <path d="M792 688C885 624 952 579 1019 571C1093 562 1168 591 1236 622C1311 655 1390 663 1494 637C1542 625 1576 615 1600 605V900H792V688Z" fill="#11141D"/>

  <path d="M932 390L1063 370L1142 410L1110 458L968 462L903 431L932 390Z" fill="url(#castleWall)"/>
  <path d="M1080 340L1217 315L1361 355L1385 512L1094 523L1080 340Z" fill="url(#castleWall)"/>
  <path d="M1157 305L1212 296L1216 337L1157 346V305Z" fill="#6A4F53"/>
  <path d="M1242 294L1301 306V345L1242 338V294Z" fill="#684E52"/>
  <path d="M1334 347L1385 361V518L1334 520V347Z" fill="#59454A"/>
  <path d="M1113 336L1247 326V520H1113V336Z" fill="#6C5255"/>
  <path d="M1247 326L1334 347V519H1247V326Z" fill="#775A5D"/>
  <path d="M1080 340L1217 315L1361 355L1385 512L1094 523L1080 340Z" fill="url(#castleShadow)"/>
  <path d="M1022 484H1273L1220 648H968L1022 484Z" fill="#3D3037" fill-opacity="0.92"/>
  <path d="M1005 484H1118L1090 560H980L1005 484Z" fill="#2C232A" fill-opacity="0.78"/>
  <path d="M1041 521H1129" stroke="#AE8B86" stroke-opacity="0.28" stroke-width="3" stroke-linecap="round"/>
  <path d="M1150 521H1235" stroke="#AE8B86" stroke-opacity="0.24" stroke-width="3" stroke-linecap="round"/>

  <g opacity="0.98">
    <path d="M0 781C0 721 46 668 111 663L240 654C318 648 386 708 391 786L398 900H0V781Z" fill="url(#bodyShell)"/>
    <path d="M8 794C8 736 53 690 112 687L236 679C305 673 365 725 370 795L376 900H8V794Z" fill="#0B1018"/>
    <path d="M26 770C56 694 115 649 177 648L293 647C349 646 394 684 426 758L486 900H0L26 770Z" fill="url(#bodyRim)"/>
    <path d="M55 789C83 723 129 688 181 688L282 688C331 688 373 718 402 781L448 900H22L55 789Z" fill="#0B0E14"/>
    <path d="M154 605C201 573 277 575 324 609L359 634C380 649 394 674 398 701L404 742L149 742L154 605Z" fill="#A793A0"/>
    <path d="M166 621C204 596 270 598 307 625L338 647C354 659 364 677 367 697L371 723L182 723L166 621Z" fill="#332A32"/>
    <path d="M181 636C215 614 263 614 297 637L323 654C336 664 344 678 347 693L350 710L191 710L181 636Z" fill="#131926"/>
    <path d="M27 786C47 720 104 674 154 678L176 680C117 721 83 793 79 900H0L27 786Z" fill="#111621"/>
    <path d="M302 699C317 666 344 644 380 642L417 640C447 638 474 655 490 680L554 782L585 900H486L438 801C416 755 370 727 320 728L289 729L302 699Z" fill="#1B2332"/>
    <path d="M314 706C329 676 349 664 375 663L404 662C427 661 446 674 459 694L511 779L539 900H494L450 804C433 767 396 742 355 742H326L314 706Z" fill="#0A0E16"/>
    <rect x="153" y="675" width="118" height="13" rx="6.5" fill="url(#neckGlow)"/>
    <path d="M317 438L347 689" stroke="#151C28" stroke-width="7" stroke-linecap="round"/>
    <path d="M347 441L307 685" stroke="#151C28" stroke-width="6.5" stroke-linecap="round"/>
    <path d="M290 450L290 670" stroke="#141B25" stroke-width="6.5" stroke-linecap="round"/>
    <path d="M241 451L221 661" stroke="#141B25" stroke-width="6" stroke-linecap="round"/>
    <path d="M198 437L185 627" stroke="#161D28" stroke-width="5.5" stroke-linecap="round"/>
    <path d="M161 435L150 603" stroke="#18202D" stroke-width="5.5" stroke-linecap="round"/>
    <path d="M320 472L353 636" stroke="#3A495D" stroke-width="2.5" stroke-linecap="round"/>
    <path d="M339 470L311 639" stroke="#4C607A" stroke-width="2.5" stroke-linecap="round"/>
    <path d="M290 474V646" stroke="#4A6078" stroke-width="2.5" stroke-linecap="round"/>
    <path d="M241 470L225 636" stroke="#4A6078" stroke-width="2.5" stroke-linecap="round"/>
    <path d="M197 462L187 613" stroke="#4A6078" stroke-width="2.5" stroke-linecap="round"/>
    <path d="M159 459L151 589" stroke="#4A6078" stroke-width="2.5" stroke-linecap="round"/>
    <path d="M125 431L110 562" stroke="#121822" stroke-width="7" stroke-linecap="round"/>
    <path d="M110 433L94 559" stroke="#4A6078" stroke-width="2.5" stroke-linecap="round"/>
    <rect x="94" y="360" width="24" height="77" rx="9" fill="#1E2735"/>
    <rect x="97" y="365" width="18" height="68" rx="8" fill="#2E394A"/>
    <path d="M100 389H112" stroke="#66E7FF" stroke-width="2" stroke-linecap="round"/>
    <path d="M179 190C165 204 153 226 148 252L140 299C133 360 174 414 233 424L289 433C336 440 380 428 411 401L455 363C494 329 513 281 507 233L503 196C496 127 438 76 369 80L260 87C227 89 198 104 179 128V190Z" fill="url(#glass)"/>
    <path d="M181 190C166 205 156 224 151 246L143 294C136 354 173 408 228 418L285 428C332 436 377 426 408 398L448 361C485 329 504 286 500 243L496 204C490 136 435 89 368 91L264 96C231 98 202 112 181 138V190Z" stroke="url(#glassEdge)" stroke-width="4"/>
    <path d="M168 156C182 122 214 102 251 100L356 95C425 91 482 143 488 212L489 221" stroke="#D5F6FF" stroke-opacity="0.5" stroke-width="3" stroke-linecap="round"/>
    <path d="M419 414L448 361L476 377L447 427L419 414Z" fill="#253140" fill-opacity="0.66"/>
    <path d="M136 304C130 354 163 401 214 411L290 425C335 433 378 424 407 398L438 370L433 342C417 243 335 170 236 176C187 179 156 208 145 247L136 304Z" fill="url(#brainGlow)" opacity="0.92"/>
    <g clip-path="url(#brainClip)">
      <path d="M130 202C156 153 213 128 271 129C332 129 388 153 413 194C439 235 434 298 401 339C366 382 307 401 249 395C195 390 144 359 123 313C103 270 107 247 130 202Z" stroke="url(#brainStroke)" stroke-width="6"/>
      <path d="M152 210C180 189 208 187 224 205C242 225 239 256 216 276C196 293 194 320 215 338C239 358 243 381 231 396" stroke="url(#brainStroke)" stroke-width="5" stroke-linecap="round"/>
      <path d="M192 170C221 174 239 188 244 214C249 239 269 255 297 256C329 257 349 272 357 303C364 330 382 349 403 357" stroke="url(#brainStroke)" stroke-width="5" stroke-linecap="round"/>
      <path d="M159 254C184 244 205 246 222 261C240 277 263 278 286 263C313 246 338 248 363 266C386 283 401 309 404 334" stroke="url(#brainStroke)" stroke-width="5" stroke-linecap="round"/>
      <path d="M175 326C196 317 220 319 238 336C257 354 281 355 304 342C327 329 351 329 373 346" stroke="url(#brainStroke)" stroke-width="5" stroke-linecap="round"/>
      <path d="M279 142C279 171 291 194 313 213C336 234 344 262 337 295C331 325 339 352 360 377" stroke="url(#brainStroke)" stroke-width="5" stroke-linecap="round"/>
      <path d="M244 143C243 168 234 190 216 209C197 228 188 254 191 284C194 313 184 339 162 362" stroke="url(#brainStroke)" stroke-width="5" stroke-linecap="round"/>
      <path d="M275 389C272 350 281 318 301 294C322 269 328 244 320 218C313 194 317 170 334 148" stroke="url(#brainStroke)" stroke-width="5" stroke-linecap="round"/>
      <path d="M214 389C217 356 207 328 183 307C159 286 150 257 156 223C160 197 152 175 131 154" stroke="url(#brainStroke)" stroke-width="5" stroke-linecap="round"/>
      <path d="M217 389L223 431" stroke="url(#brainStroke)" stroke-width="5" stroke-linecap="round"/>
      <path d="M243 393L244 442" stroke="url(#brainStroke)" stroke-width="5" stroke-linecap="round"/>
      <path d="M266 394L266 444" stroke="url(#brainStroke)" stroke-width="5" stroke-linecap="round"/>
      <path d="M289 390L292 437" stroke="url(#brainStroke)" stroke-width="5" stroke-linecap="round"/>
    </g>
    <g filter="url(#glow)" opacity="0.95">
      <ellipse cx="260" cy="258" rx="136" ry="112" fill="#62E8FF" fill-opacity="0.2"/>
    </g>
    <path d="M144 247C155 191 197 150 250 145L344 136C392 131 438 157 460 200C446 170 424 148 396 133C364 116 326 109 286 111C217 114 153 152 126 210C116 232 111 259 112 286L119 347C124 394 151 430 190 449L171 429C141 397 129 351 136 304L144 247Z" fill="#EAFBFF" fill-opacity="0.18"/>
  </g>

  <path d="M0 668C89 628 181 611 286 620C395 630 501 674 611 699C786 740 946 729 1114 683C1266 641 1436 622 1600 650V900H0V668Z" fill="#17202C" fill-opacity="0.55"/>
  <path d="M0 741C133 708 261 709 399 744C545 781 692 838 860 839C1007 839 1157 799 1297 764C1405 738 1503 727 1600 738V900H0V741Z" fill="#0B0F17"/>
  <g opacity="0.54" filter="url(#soft)">
    <ellipse cx="1187" cy="717" rx="320" ry="82" fill="#D1C5D8"/>
    <ellipse cx="690" cy="687" rx="398" ry="62" fill="#BBC5DA"/>
    <ellipse cx="250" cy="718" rx="258" ry="76" fill="#C7D6EB"/>
  </g>
  <path d="M0 739C161 699 293 699 429 732C570 767 715 831 871 833C1019 835 1176 796 1319 762C1428 736 1519 727 1600 733V900H0V739Z" fill="#E2D9EA" fill-opacity="0.12"/>
</svg>
